HIERARCHY
ROOT Hips
{
	OFFSET -0.001795 -0.223333 0.028219
	CHANNELS 6 Xposition Yposition Zposition Zrotation Yrotation Xrotation 
	JOINT LeftUpLeg
	{
		OFFSET 0.069520 -0.091406 -0.006815
		CHANNELS 3 Zrotation Yrotation Xrotation
		JOINT LeftLeg
		{
			OFFSET 0.034277 -0.375199 -0.004496
			CHANNELS 3 Zrotation Yrotation Xrotation
			JOINT LeftFoot
			{
				OFFSET -0.013596 -0.397961 -0.043693
				CHANNELS 3 Zrotation Yrotation Xrotation
				JOINT LeftToe
				{
					OFFSET 0.026358 -0.055791 0.119288
					CHANNELS 3 Zrotation Yrotation Xrotation
					End Site
					{
						OFFSET 0.000000 0.000000 0.000000
					}
				}
			}
		}
	}
	JOINT RightUpLeg
	{
		OFFSET -0.067670 -0.090522 -0.004320
		CHANNELS 3 Zrotation Yrotation Xrotation
		JOINT RightLeg
		{
			OFFSET -0.038290 -0.382569 -0.008850
			CHANNELS 3 Zrotation Yrotation Xrotation
			JOINT RightFoot
			{
				OFFSET 0.015774 -0.398415 -0.042312
				CHANNELS 3 Zrotation Yrotation Xrotation
				JOINT RightToe
				{
					OFFSET -0.025372 -0.048144 0.123348
					CHANNELS 3 Zrotation Yrotation Xrotation
					End Site
					{
						OFFSET 0.000000 0.000000 0.000000
					}
				}
			}
		}
	}
	JOINT Spine
	{
		OFFSET -0.002533 0.108963 -0.026696
		CHANNELS 3 Zrotation Yrotation Xrotation
		JOINT Spine1
		{
			OFFSET 0.005487 0.135180 0.001092
			CHANNELS 3 Zrotation Yrotation Xrotation
			JOINT Spine2
			{
				OFFSET 0.001457 0.052922 0.025425
				CHANNELS 3 Zrotation Yrotation Xrotation
				JOINT Neck
				{
					OFFSET -0.002778 0.213870 -0.042857
					CHANNELS 3 Zrotation Yrotation Xrotation
					JOINT Head
					{
						OFFSET 0.005152 0.064970 0.051349
						CHANNELS 3 Zrotation Yrotation Xrotation
						End Site
						{
							OFFSET 0.000000 0.000000 0.000000
						}
					}
				}
				JOINT LeftShoulder
				{
					OFFSET 0.078845 0.121749 -0.034090
					CHANNELS 3 Zrotation Yrotation Xrotation
					JOINT LeftArm
					{
						OFFSET 0.090977 0.030469 -0.008868
						CHANNELS 3 Zrotation Yrotation Xrotation
						JOINT LeftForeArm
						{
							OFFSET 0.259612 -0.012772 -0.027456
							CHANNELS 3 Zrotation Yrotation Xrotation
							JOINT LeftHand
							{
								OFFSET 0.249234 0.008986 -0.001171
								CHANNELS 3 Zrotation Yrotation Xrotation
								End Site
								{
									OFFSET 0.000000 0.000000 0.000000
								}
							}
						}
					}
				}
				JOINT RightShoulder
				{
					OFFSET -0.081759 0.118833 -0.038615
					CHANNELS 3 Zrotation Yrotation Xrotation
					JOINT RightArm
					{
						OFFSET -0.096012 0.032551 -0.009143
						CHANNELS 3 Zrotation Yrotation Xrotation
						JOINT RightForeArm
						{
							OFFSET -0.253742 -0.013329 -0.021401
							CHANNELS 3 Zrotation Yrotation Xrotation
							JOINT RightHand
							{
								OFFSET -0.255298 0.007772 -0.005559
								CHANNELS 3 Zrotation Yrotation Xrotation
								End Site
								{
									OFFSET 0.000000 0.000000 0.000000
								}
							}
						}
					}
				}
			}
		}
	}
}
MOTION
Frames: 16
Frame Time: 0.050000
0.000000 0.942325 0.000000 0.393077 -3.211855 6.131003 4.973218 -0.215072 -2.340506 1.887055 -0.019080 -3.826794 2.019542 8.762005 17.943115 0.000000 0.000000 0.000000 -4.156062 0.371976 -2.972103 -5.180418 -0.063953 -6.897683 0.553942 -5.961550 16.555965 0.000000 0.000000 0.000000 5.495234 0.318937 -5.131667 -3.421154 1.561073 -2.957778 -4.726057 4.963448 2.480947 5.549030 -3.017024 -7.912539 0.000000 0.000000 0.000000 -18.517491 -1.233035 -2.213171 -52.739433 -4.200108 -4.061729 -6.163486 -15.964256 1.327678 0.000000 0.000000 0.000000 16.081305 -6.401371 -4.000361 62.464553 2.062923 -4.591615 7.297867 21.387014 2.111526 0.000000 0.000000 0.000000 
0.000118 0.941811 0.000034 0.473171 -3.536184 6.973646 4.776567 -0.211014 -2.103438 2.010355 0.075620 -5.767488 2.113045 8.928162 18.393226 0.000000 0.000000 0.000000 -4.168757 0.453690 -4.085653 -5.409248 -0.040699 -6.677052 0.622781 -5.850195 16.407399 0.000000 0.000000 0.000000 6.687738 0.383191 -5.669312 -4.284553 1.934212 -3.040288 -5.981629 5.336374 1.730879 5.420418 -2.747197 -8.718564 0.000000 0.000000 0.000000 -19.190233 -0.749964 -2.714923 -51.471676 -4.454764 -3.718285 -6.168731 -15.673078 1.285482 0.000000 0.000000 0.000000 15.823554 -7.827272 -4.636299 63.998977 1.090261 -5.069276 7.328131 21.191671 2.109068 0.000000 0.000000 0.000000 
0.000126 0.941795 -0.000089 0.922523 -3.285584 6.867677 4.257626 -0.246683 -2.757930 2.103560 0.004920 -4.574873 2.020822 8.795809 18.188421 0.000000 0.000000 0.000000 -4.533799 0.461263 -4.186565 -5.618105 0.007681 -6.232139 0.416234 -6.087421 16.166452 0.000000 0.000000 0.000000 6.436067 0.365914 -5.557748 -4.326122 1.936392 -3.649295 -6.116404 4.498767 1.990062 4.564719 -2.356555 -7.740494 0.000000 0.000000 0.000000 -19.098135 -1.133423 -2.315586 -51.639135 -4.438219 -3.804804 -5.227118 -14.860356 1.121606 0.000000 0.000000 0.000000 16.863359 -6.445041 -4.169037 62.600484 0.933693 -5.171005 7.297927 21.400104 2.097047 0.000000 0.000000 0.000000 
0.000012 0.942144 -0.000151 1.203155 -2.986530 7.326764 4.349475 -0.268630 -3.035678 1.472399 0.078308 -5.127940 1.777566 8.550300 18.504319 0.000000 0.000000 0.000000 -4.804476 0.497413 -4.702943 -5.649368 0.020659 -6.102965 0.230945 -6.381388 16.259377 0.000000 0.000000 0.000000 6.529675 0.382235 -5.827115 -4.689728 2.115277 -2.974312 -6.364166 3.803970 0.589294 4.044723 -2.220452 -6.230189 0.000000 0.000000 0.000000 -19.223451 -0.813074 -2.452364 -51.784870 -5.276447 -3.332926 -3.920237 -13.797654 0.889232 0.000000 0.000000 0.000000 15.860484 -6.510305 -4.186216 63.120155 0.579349 -5.223979 8.048761 21.703016 2.225379 0.000000 0.000000 0.000000 
-0.000221 0.942717 -0.000286 1.451288 -2.624516 7.182188 3.859938 -0.281684 -3.205558 1.945775 0.026222 -4.719176 1.559359 8.313972 18.595032 0.000000 0.000000 0.000000 -4.842902 0.490807 -4.673246 -5.986524 0.070734 -5.748336 0.042539 -6.657206 16.293162 0.000000 0.000000 0.000000 6.282590 0.345004 -5.513635 -4.498244 2.028931 -3.136304 -6.560914 3.514408 0.690914 3.450548 -1.767173 -6.473632 0.000000 0.000000 0.000000 -19.220505 -1.203414 -2.231105 -51.712919 -5.976390 -3.040804 -3.960355 -13.260618 0.862700 0.000000 0.000000 0.000000 15.865327 -6.424325 -4.150043 62.820376 0.796636 -5.096940 7.847181 21.408681 2.154389 0.000000 0.000000 0.000000 
-0.000466 0.943139 -0.000349 1.678179 -2.360241 7.498357 3.768607 -0.301766 -3.462012 1.747466 0.055439 -5.003517 1.355343 8.117901 18.861205 0.000000 0.000000 0.000000 -4.888515 0.494463 -4.712444 -6.295632 0.045441 -6.201247 -0.057927 -6.874670 16.603886 0.000000 0.000000 0.000000 6.069235 0.353427 -5.729654 -4.538730 2.045410 -3.170847 -6.628374 3.318278 0.476858 3.219854 -1.642565 -6.184001 0.000000 0.000000 0.000000 -19.647859 -1.050037 -2.378615 -51.335594 -6.303128 -2.840169 -3.610973 -12.821576 0.795643 0.000000 0.000000 0.000000 15.695503 -6.191697 -4.019048 63.000564 0.762665 -5.096171 7.604445 21.329185 2.099205 0.000000 0.000000 0.000000 
-0.000683 0.943403 -0.000440 1.711501 -2.122524 7.557418 3.684755 -0.313881 -3.628798 1.901478 0.041301 -4.916126 1.222101 7.978659 18.919208 0.000000 0.000000 0.000000 -4.802447 0.496618 -4.787079 -6.455315 0.064512 -6.091106 -0.171097 -7.050655 16.680247 0.000000 0.000000 0.000000 5.946877 0.339806 -5.645205 -4.398366 1.985752 -3.146014 -6.691374 2.996089 0.366638 3.178514 -1.545635 -6.726211 0.000000 0.000000 0.000000 -19.594751 -0.994815 -2.360485 -51.433295 -6.238921 -2.871236 -3.768230 -12.887556 0.819472 0.000000 0.000000 0.000000 15.782876 -6.148655 -4.041626 62.975951 0.887844 -5.022843 7.434715 21.327025 2.061349 0.000000 0.000000 0.000000 
-0.000826 0.943719 -0.000571 1.752559 -1.779014 7.846850 3.628146 -0.345109 -4.072912 2.008656 0.030573 -4.824931 1.039320 7.790545 19.002775 0.000000 0.000000 0.000000 -4.800546 0.510149 -5.014396 -6.478844 0.064298 -6.115386 -0.333927 -7.315784 16.854636 0.000000 0.000000 0.000000 5.852130 0.330859 -5.666255 -4.356853 1.964476 -3.277071 -6.809555 2.864036 0.247309 2.916827 -1.401169 -6.400086 0.000000 0.000000 0.000000 -19.481039 -1.021733 -2.352587 -51.196715 -6.326396 -2.803088 -4.296505 -13.013945 0.884449 0.000000 0.000000 0.000000 15.788200 -6.266696 -4.092073 63.089191 0.770583 -5.071782 7.387608 21.378801 2.060385 0.000000 0.000000 0.000000 
-0.000954 0.944174 -0.000757 1.855848 -1.658205 8.000205 3.516661 -0.366033 -4.368991 2.042468 0.020817 -4.672952 0.951683 7.717083 19.146088 0.000000 0.000000 0.000000 -4.829266 0.514451 -5.074953 -6.599331 0.054605 -6.279039 -0.368281 -7.410737 17.069598 0.000000 0.000000 0.000000 5.738085 0.325487 -5.675536 -4.330541 1.949701 -3.408748 -6.737441 2.711335 0.209243 2.626503 -1.195739 -6.445141 0.000000 0.000000 0.000000 -19.251239 -0.900338 -2.357093 -51.190462 -6.517273 -2.727624 -4.735249 -12.858816 0.923727 0.000000 0.000000 0.000000 15.674536 -6.130866 -4.028790 63.023031 0.871115 -5.008011 7.439177 21.343834 2.059628 0.000000 0.000000 0.000000 
-0.001120 0.944569 -0.000964 1.935551 -1.471080 8.120357 3.506441 -0.383683 -4.625451 1.960992 0.020433 -4.547291 0.831023 7.601944 19.260299 0.000000 0.000000 0.000000 -4.881675 0.516440 -5.112190 -6.615336 0.045299 -6.391366 -0.441438 -7.548147 17.247713 0.000000 0.000000 0.000000 5.719299 0.316843 -5.631985 -4.376456 1.966808 -3.535504 -6.778548 2.743050 0.133776 2.416925 -1.040250 -6.458901 0.000000 0.000000 0.000000 -18.941398 -1.052201 -2.269204 -51.210972 -6.793456 -2.603965 -5.186898 -12.753509 0.962591 0.000000 0.000000 0.000000 15.673601 -6.169118 -4.024613 62.971099 0.972948 -4.931535 7.257313 21.375042 2.037214 0.000000 0.000000 0.000000 
-0.001307 0.944892 -0.001161 2.013510 -1.401605 8.231789 3.530356 -0.390871 -4.727260 1.802618 0.036205 -4.638103 0.757875 7.544800 19.415642 0.000000 0.000000 0.000000 -5.035806 0.517675 -5.116963 -6.460793 0.019203 -6.595390 -0.457110 -7.601658 17.405551 0.000000 0.000000 0.000000 5.698047 0.311832 -5.612165 -4.390109 1.972419 -3.538159 -6.842671 2.754167 -0.025268 2.392795 -1.019432 -6.457446 0.000000 0.000000 0.000000 -18.819671 -1.186514 -2.204588 -51.129985 -6.920264 -2.526813 -5.488347 -12.930370 1.006972 0.000000 0.000000 0.000000 15.561778 -6.048771 -3.940030 63.058948 1.090428 -4.849995 7.327004 21.320973 2.043734 0.000000 0.000000 0.000000 
-0.001482 0.945032 -0.001295 2.056846 -1.069603 8.329560 3.713798 -0.392315 -4.742160 1.480115 0.072607 -4.926289 0.549052 7.324924 19.509996 0.000000 0.000000 0.000000 -5.013317 0.506086 -4.945993 -6.516353 -0.011980 -6.962887 -0.590888 -7.819891 17.612559 0.000000 0.000000 0.000000 5.724541 0.309845 -5.637160 -4.426722 1.990069 -3.514587 -6.919854 2.712980 -0.292334 2.276634 -0.923448 -6.501029 0.000000 0.000000 0.000000 -18.605597 -1.266697 -2.183771 -51.273405 -7.200857 -2.383192 -5.616543 -12.723243 0.999988 0.000000 0.000000 0.000000 15.420240 -6.130172 -3.939770 63.232190 1.052574 -4.834195 7.394881 21.287772 2.055420 0.000000 0.000000 0.000000 
-0.001585 0.945172 -0.001319 1.994104 -0.902353 8.421930 3.830921 -0.389059 -4.678491 1.438922 0.091926 -5.268602 0.439454 7.217377 19.600631 0.000000 0.000000 0.000000 -4.911633 0.500601 -4.863481 -6.535025 -0.035726 -7.222168 -0.640364 -7.915860 17.783888 0.000000 0.000000 0.000000 5.721341 0.304663 -5.617164 -4.359648 1.959596 -3.604731 -6.912625 2.867716 -0.458463 2.251530 -0.903456 -6.434471 0.000000 0.000000 0.000000 -18.658619 -1.385387 -2.192989 -51.159355 -7.433793 -2.251763 -5.990845 -12.569417 1.023808 0.000000 0.000000 0.000000 15.491060 -6.339094 -4.015701 63.142331 1.035453 -4.807108 7.430351 21.305365 2.071720 0.000000 0.000000 0.000000 
-0.001656 0.945133 -0.001277 1.935500 -0.589584 8.547522 3.867978 -0.399398 -4.814518 1.557665 0.089750 -5.362043 0.287952 7.049071 19.574058 0.000000 0.000000 0.000000 -4.780309 0.504754 -4.967091 -6.601990 -0.023956 -7.141166 -0.800377 -8.138200 17.822972 0.000000 0.000000 0.000000 5.722675 0.308464 -5.709974 -4.284735 1.930733 -3.513303 -6.908959 2.812477 -0.699100 2.235227 -0.906571 -6.268798 0.000000 0.000000 0.000000 -18.361209 -1.397286 -2.181089 -51.291323 -7.556897 -2.180695 -6.379805 -12.517583 1.056848 0.000000 0.000000 0.000000 15.146037 -6.296620 -3.936632 63.337422 0.957996 -4.812695 7.502057 21.528852 2.110854 0.000000 0.000000 0.000000 
-0.001731 0.945130 -0.001236 1.939435 -0.299989 8.617791 3.908931 -0.401731 -4.819811 1.541230 0.101565 -5.576310 0.125313 6.872495 19.596804 0.000000 0.000000 0.000000 -4.747821 0.502607 -4.963444 -6.615933 -0.023349 -7.153497 -0.945861 -8.341022 17.871196 0.000000 0.000000 0.000000 5.688823 0.306315 -5.733567 -4.217261 1.901193 -3.616702 -6.990002 2.858089 -0.790596 2.271978 -0.943949 -6.103645 0.000000 0.000000 0.000000 -18.212308 -1.372943 -2.225614 -51.397873 -7.399566 -2.239643 -6.707105 -12.468092 1.082911 0.000000 0.000000 0.000000 15.092443 -6.462465 -3.978352 63.312863 0.895214 -4.816365 7.624821 21.456813 2.132177 0.000000 0.000000 0.000000 
-0.001906 0.944923 -0.001270 1.871130 -0.295771 8.617223 4.032941 -0.404086 -4.884182 1.480076 0.099638 -5.461671 0.151919 6.885725 19.500985 0.000000 0.000000 0.000000 -4.678239 0.509790 -5.085493 -6.587069 -0.003489 -6.937132 -0.971159 -8.352392 17.740305 0.000000 0.000000 0.000000 5.675117 0.297441 -5.638953 -4.140453 1.867794 -3.636963 -6.971690 2.848292 -0.924730 2.634452 -1.182224 -6.210925 0.000000 0.000000 0.000000 -18.027579 -1.169141 -2.303774 -51.482078 -7.139442 -2.348006 -7.016202 -12.517909 1.118431 0.000000 0.000000 0.000000 14.823188 -6.497509 -3.967563 63.579769 0.841613 -4.838315 7.651981 21.415023 2.129595 0.000000 0.000000 0.000000 
